<?xml version="1.0" standalone="no"?>
<!DOCTYPE svg PUBLIC "-//W3C//DTD SVG 20010904//EN"
 "http://www.w3.org/TR/2001/REC-SVG-20010904/DTD/svg10.dtd">
<svg version="1.0" xmlns="http://www.w3.org/2000/svg"
 width="1725.000000pt" height="1725.000000pt" viewBox="0 0 1725.000000 1725.000000"
 preserveAspectRatio="xMidYMid meet">
<metadata>
Created by potrace 1.14, written by Peter Selinger 2001-2017
</metadata>
<g transform="translate(0.000000,1725.000000) scale(0.100000,-0.100000)"
fill="#000000" stroke="none">
<path d="M16 16918 c-14 -20 -16 -824 -16 -8295 0 -8260 0 -8273 20 -8293 20
-20 33 -20 8605 -20 8572 0 8585 0 8605 20 20 20 20 33 20 1799 l0 1780 -22
15 c-20 14 -104 16 -710 16 -661 0 -689 -1 -707 -19 -18 -18 -19 -53 -19
-1042 -1 -563 -1 -1047 -1 -1075 -1 -27 -7 -59 -15 -70 -14 -19 -99 -19 -7128
-19 -3912 0 -7125 1 -7141 3 -15 3 -33 14 -39 25 -12 23 -16 13715 -4 13753 3
12 16 25 29 31 14 6 2646 9 7143 9 6827 -1 7121 -2 7138 -19 17 -17 18 -73 18
-1094 0 -1041 1 -1076 19 -1094 18 -18 46 -19 709 -19 677 0 690 0 710 20 20
20 20 33 20 1795 0 1762 0 1775 -20 1795 -20 20 -33 20 -8609 20 l-8590 0 -15
-22z"/>
<path d="M2673 14542 c-56 -2 -83 -7 -84 -15 -3 -34 -4 -5324 -1 -5337 3 -13
313 -15 2725 -14 1497 1 2728 2 2735 3 9 1 12 544 12 2681 l0 2680 -52 1
c-231 2 -5272 3 -5335 1z"/>
<path d="M9099 14529 c-5 -3 -8 -1088 -7 -2679 l3 -2674 2025 0 c1807 0 2131
3 2205 18 427 86 764 352 970 765 70 140 131 337 150 481 3 25 8 62 11 84 8
52 8 3995 0 4003 -7 8 -5344 10 -5357 2z"/>
<path d="M2597 8068 c-8 -5 -11 -705 -12 -2577 l0 -2571 105 0 c137 -1 5249
-1 5318 0 l52 0 0 2578 0 2577 -2726 0 c-1499 0 -2731 -3 -2737 -7z"/>
<path d="M9094 8071 c-2 -2 -4 -1162 -4 -2578 l0 -2573 28 0 c30 -1 5203 -1
5292 0 l55 0 -1 1903 c-1 1047 -4 1942 -8 1988 -20 255 -110 516 -249 718 -64
93 -211 243 -297 304 -187 131 -405 212 -625 233 -82 8 -4183 12 -4191 5z"/>
</g>
</svg>
