<svg width="6499" height="1663" viewBox="0 0 6499 1663" fill="none" xmlns="http://www.w3.org/2000/svg">
<path d="M6.07386 0H1718.89C1722.25 0 1724.97 2.62165 1724.97 5.85563V357.194C1724.97 360.428 1722.25 363.049 1718.89 363.049H1585.27C1581.92 363.049 1579.2 360.428 1579.2 357.194V146.391C1579.2 143.157 1576.48 140.535 1573.12 140.535H151.846C148.491 140.535 145.772 143.157 145.772 146.391V1516.61C145.772 1519.84 148.491 1522.46 151.846 1522.46H1573.12C1576.48 1522.46 1579.2 1519.84 1579.2 1516.61V1305.81C1579.2 1302.57 1581.92 1299.95 1585.27 1299.95H1718.89C1722.25 1299.95 1724.97 1302.57 1724.97 1305.81V1657.14C1724.97 1660.38 1722.25 1663 1718.89 1663H6.07383C2.71935 1663 0 1660.38 0 1657.14V5.85563C0 2.62166 2.71938 0 6.07386 0Z" fill="#29BEED"/>
<path d="M258.658 886.634H806.041V1402.2H258.658V886.634Z" fill="#29BEED"/>
<path d="M258.658 239.803H806.041V776.366H258.658V239.803Z" fill="#29BEED"/>
<path d="M908.927 240.803H1446.31V625.831C1446.31 703.446 1391.05 776.366 1310.54 776.366H908.927V240.803Z" fill="#29BEED"/>
<path d="M908.927 886.634H1313.54C1394.05 886.634 1446.31 949.554 1446.31 1027.17V1402.2H908.927V886.634Z" fill="#29BEED"/>
<path d="M2165.64 778.334C2184.39 778.334 2199.73 776.97 2211.66 774.244C2224.16 770.972 2234.1 766.882 2241.49 761.974C2248.87 756.52 2253.99 750.249 2256.83 743.159C2259.67 736.07 2261.09 728.163 2261.09 719.437C2261.09 700.896 2252 685.626 2233.82 673.629C2215.64 661.086 2184.39 647.725 2140.07 633.546C2120.75 627.002 2101.44 619.64 2082.12 611.46C2062.8 602.735 2045.47 592.101 2030.13 579.558C2014.79 566.47 2002.29 550.928 1992.64 532.932C1982.98 514.39 1978.15 492.031 1978.15 465.855C1978.15 439.679 1983.26 416.229 1993.49 395.506C2003.72 374.238 2018.2 356.242 2036.95 341.518C2055.7 326.794 2078.43 315.614 2105.13 307.98C2131.83 299.8 2161.95 295.71 2195.47 295.71C2235.24 295.71 2269.61 299.8 2298.59 307.98C2327.56 316.16 2351.42 325.158 2370.17 334.974L2331.82 435.589C2315.35 427.409 2296.88 420.319 2276.43 414.32C2256.54 407.776 2232.4 404.504 2203.99 404.504C2172.17 404.504 2149.16 408.867 2134.96 417.593C2121.32 425.773 2114.5 438.588 2114.5 456.039C2114.5 466.4 2117.06 475.126 2122.17 482.215C2127.29 489.304 2134.39 495.849 2143.48 501.847C2153.14 507.301 2163.93 512.481 2175.86 517.389C2188.36 521.752 2202 526.388 2216.77 531.296C2247.45 542.202 2274.15 553.109 2296.88 564.016C2319.61 574.377 2338.36 586.647 2353.13 600.826C2368.47 615.005 2379.83 631.638 2387.22 650.725C2394.6 669.811 2398.3 692.988 2398.3 720.255C2398.3 773.153 2378.98 814.326 2340.34 843.774C2301.71 872.677 2243.48 887.129 2165.64 887.129C2139.5 887.129 2115.92 885.493 2094.9 882.221C2073.88 879.494 2055.13 875.949 2038.66 871.586C2022.75 867.224 2008.83 862.588 1996.9 857.68C1985.53 852.772 1975.88 848.137 1967.92 843.774L2005.42 742.341C2023.03 751.612 2044.62 760.065 2070.19 767.7C2096.32 774.789 2128.14 778.334 2165.64 778.334Z" fill="#29BEED"/>
<path d="M2618.2 302.254C2706.26 302.254 2773.87 317.25 2821.03 347.244C2868.18 376.692 2891.76 425.227 2891.76 492.849C2891.76 561.016 2867.9 610.37 2820.17 640.908C2772.45 670.902 2704.27 685.899 2615.64 685.899H2573.88V875.676H2440.93V316.978C2469.91 311.524 2500.59 307.707 2532.97 305.526C2565.36 303.344 2593.77 302.254 2618.2 302.254ZM2626.72 411.048C2617.06 411.048 2607.4 411.321 2597.74 411.867C2588.65 412.412 2580.7 412.957 2573.88 413.503V577.104H2615.64C2661.66 577.104 2696.32 571.105 2719.61 559.108C2742.91 547.11 2754.55 524.751 2754.55 492.031C2754.55 476.216 2751.43 463.128 2745.18 452.767C2739.5 442.405 2730.97 434.225 2719.61 428.227C2708.82 421.683 2695.47 417.32 2679.56 415.139C2663.65 412.412 2646.04 411.048 2626.72 411.048Z" fill="#29BEED"/>
<path d="M3041.37 591.828C3041.37 619.64 3044.78 644.726 3051.6 667.085C3058.99 689.444 3069.21 708.803 3082.28 725.163C3095.92 740.978 3112.39 753.248 3131.71 761.974C3151.03 770.699 3173.18 775.062 3198.18 775.062C3222.61 775.062 3244.49 770.699 3263.8 761.974C3283.69 753.248 3300.17 740.978 3313.23 725.163C3326.87 708.803 3337.1 689.444 3343.91 667.085C3351.3 644.726 3354.99 619.64 3354.99 591.828C3354.99 564.016 3351.3 538.93 3343.91 516.571C3337.1 493.667 3326.87 474.308 3313.23 458.493C3300.17 442.133 3283.69 429.59 3263.8 420.865C3244.49 412.139 3222.61 407.776 3198.18 407.776C3173.18 407.776 3151.03 412.412 3131.71 421.683C3112.39 430.408 3095.92 442.951 3082.28 459.311C3069.21 475.126 3058.99 494.485 3051.6 517.389C3044.78 539.748 3041.37 564.561 3041.37 591.828ZM3492.2 591.828C3492.2 640.363 3484.53 683.172 3469.19 720.255C3454.42 756.793 3433.97 787.604 3407.83 812.69C3381.7 837.23 3350.45 855.772 3314.09 868.314C3278.29 880.857 3239.66 887.129 3198.18 887.129C3157.84 887.129 3119.78 880.857 3083.98 868.314C3048.19 855.772 3016.94 837.23 2990.24 812.69C2963.54 787.604 2942.52 756.793 2927.18 720.255C2911.84 683.172 2904.16 640.363 2904.16 591.828C2904.16 543.293 2912.12 500.757 2928.03 464.219C2943.94 427.136 2965.24 396.052 2991.94 370.966C3019.22 345.881 3050.46 327.066 3085.69 314.524C3121.48 301.981 3158.98 295.71 3198.18 295.71C3238.52 295.71 3276.59 301.981 3312.38 314.524C3348.17 327.066 3379.42 345.881 3406.13 370.966C3432.83 396.052 3453.85 427.136 3469.19 464.219C3484.53 500.757 3492.2 543.293 3492.2 591.828Z" fill="#29BEED"/>
<path d="M3961.44 308.798V417.593H3783.32V875.676H3650.38V417.593H3472.26V308.798H3961.44Z" fill="#29BEED"/>
<path d="M4243.94 591.828C4243.94 619.64 4247.35 644.726 4254.17 667.085C4261.56 689.444 4271.78 708.803 4284.85 725.163C4298.49 740.978 4314.96 753.248 4334.28 761.974C4353.6 770.699 4375.76 775.062 4400.75 775.062C4425.18 775.062 4447.06 770.699 4466.38 761.974C4486.26 753.248 4502.74 740.978 4515.8 725.163C4529.44 708.803 4539.67 689.444 4546.48 667.085C4553.87 644.726 4557.56 619.64 4557.56 591.828C4557.56 564.016 4553.87 538.93 4546.48 516.571C4539.67 493.667 4529.44 474.308 4515.8 458.493C4502.74 442.133 4486.26 429.59 4466.38 420.865C4447.06 412.139 4425.18 407.776 4400.75 407.776C4375.76 407.776 4353.6 412.412 4334.28 421.683C4314.96 430.408 4298.49 442.951 4284.85 459.311C4271.78 475.126 4261.56 494.485 4254.17 517.389C4247.35 539.748 4243.94 564.561 4243.94 591.828ZM4694.77 591.828C4694.77 640.363 4687.1 683.172 4671.76 720.255C4656.99 756.793 4636.54 787.604 4610.4 812.69C4584.27 837.23 4553.02 855.772 4516.66 868.314C4480.86 880.857 4442.23 887.129 4400.75 887.129C4360.42 887.129 4322.35 880.857 4286.56 868.314C4250.76 855.772 4219.51 837.23 4192.81 812.69C4166.11 787.604 4145.09 756.793 4129.75 720.255C4114.41 683.172 4106.74 640.363 4106.74 591.828C4106.74 543.293 4114.69 500.757 4130.6 464.219C4146.51 427.136 4167.81 396.052 4194.52 370.966C4221.79 345.881 4253.03 327.066 4288.26 314.524C4324.05 301.981 4361.55 295.71 4400.75 295.71C4441.09 295.71 4479.16 301.981 4514.95 314.524C4550.75 327.066 4581.99 345.881 4608.7 370.966C4635.4 396.052 4656.42 427.136 4671.76 464.219C4687.1 500.757 4694.77 543.293 4694.77 591.828Z" fill="#29BEED"/>
<path d="M5142.22 875.676C5104.16 810.781 5062.97 746.704 5018.65 683.445C4974.34 620.186 4927.18 560.471 4877.18 504.301V875.676H4745.94V308.798H4854.17C4872.92 326.794 4893.66 348.88 4916.38 375.056C4939.11 401.232 4962.12 429.317 4985.41 459.311C5009.28 488.759 5032.85 519.571 5056.15 551.746C5079.44 583.375 5101.32 613.914 5121.77 643.362V308.798H5253.87V875.676H5142.22Z" fill="#29BEED"/>
<path d="M2197.58 1124.09C2182.87 1168.88 2167.98 1210.34 2152.91 1248.45C2137.85 1286.56 2122.78 1323.66 2107.71 1359.77H2056.74C2038.17 1308.62 2021.7 1254.63 2007.34 1197.8C1993.32 1140.97 1980.18 1079.12 1967.92 1012.26H2021.53C2026.43 1038.34 2031.51 1064.42 2036.77 1090.49C2042.02 1116.57 2047.45 1141.97 2053.06 1166.71C2058.66 1191.11 2064.27 1214.52 2069.88 1236.91C2075.48 1259.31 2081.26 1280.04 2087.22 1299.09C2101.23 1263.99 2116.12 1225.55 2131.89 1183.76C2147.65 1141.64 2162.37 1098.18 2176.03 1053.38H2220.18C2233.84 1098.18 2248.73 1141.64 2264.85 1183.76C2280.97 1225.55 2296.03 1263.99 2310.05 1299.09C2315.65 1280.37 2321.26 1259.81 2326.86 1237.42C2332.47 1215.02 2337.9 1191.62 2343.15 1167.21C2348.76 1142.47 2354.19 1117.07 2359.45 1090.99C2364.7 1064.58 2369.78 1038.34 2374.69 1012.26H2426.71C2414.1 1079.12 2400.61 1140.97 2386.25 1197.8C2372.23 1254.63 2356.12 1308.62 2337.9 1359.77H2286.92C2271.51 1323.66 2256.44 1286.56 2241.73 1248.45C2227.01 1210.34 2212.3 1168.88 2197.58 1124.09Z" fill="#489B21"/>
<path d="M2462.82 1012.26H2513.8V1359.77H2462.82V1012.26Z" fill="#489B21"/>
<path d="M2829.94 1359.77C2822.23 1347.4 2813.3 1333.53 2803.14 1318.15C2793.33 1302.77 2782.64 1286.89 2771.08 1270.51C2759.52 1253.8 2747.43 1236.91 2734.82 1219.86C2722.56 1202.81 2710.29 1186.43 2698.03 1170.72C2685.77 1154.68 2673.86 1139.63 2662.29 1125.59C2650.73 1111.55 2640.05 1099.18 2630.24 1088.48V1359.77H2580.31V1012.26H2620.78C2637.24 1028.98 2654.76 1048.54 2673.33 1070.93C2692.25 1093 2710.82 1115.9 2729.04 1139.63C2747.61 1163.03 2764.95 1186.1 2781.06 1208.83C2797.53 1231.56 2811.37 1251.79 2822.58 1269.51V1012.26H2872.51V1359.77H2829.94Z" fill="#489B21"/>
<path d="M3238.04 1185.77C3238.04 1215.85 3233.13 1242.1 3223.32 1264.49C3213.51 1286.56 3199.67 1304.94 3181.81 1319.65C3163.94 1334.03 3142.57 1344.89 3117.69 1352.25C3092.82 1359.27 3065.49 1362.78 3035.71 1362.78C3020.99 1362.78 3004.7 1362.11 2986.83 1360.77C2969.31 1359.77 2953.37 1357.6 2939.01 1354.25V1017.28C2953.37 1013.94 2969.31 1011.76 2986.83 1010.76C3004.7 1009.42 3020.99 1008.75 3035.71 1008.75C3065.49 1008.75 3092.82 1012.43 3117.69 1019.79C3142.57 1026.81 3163.94 1037.67 3181.81 1052.38C3199.67 1066.76 3213.51 1085.14 3223.32 1107.54C3233.13 1129.6 3238.04 1155.68 3238.04 1185.77ZM3039.91 1320.15C3088.26 1320.15 3124.35 1308.45 3148.17 1285.05C3172 1261.32 3183.91 1228.22 3183.91 1185.77C3183.91 1143.31 3172 1110.38 3148.17 1086.98C3124.35 1063.25 3088.26 1051.38 3039.91 1051.38C3025.55 1051.38 3014.34 1051.54 3006.28 1051.88C2998.57 1052.21 2993.14 1052.55 2989.99 1052.88V1318.65C2993.14 1318.98 2998.57 1319.32 3006.28 1319.65C3014.34 1319.99 3025.55 1320.15 3039.91 1320.15Z" fill="#489B21"/>
<path d="M3275.29 1185.77C3275.29 1156.01 3279.85 1129.77 3288.96 1107.04C3298.42 1084.31 3311.03 1065.42 3326.8 1050.37C3342.91 1035 3361.48 1023.46 3382.5 1015.77C3403.88 1008.09 3426.47 1004.24 3450.3 1004.24C3473.77 1004.24 3495.84 1008.09 3516.52 1015.77C3537.54 1023.46 3555.93 1035 3571.7 1050.37C3587.46 1065.42 3599.9 1084.31 3609.01 1107.04C3618.47 1129.77 3623.2 1156.01 3623.2 1185.77C3623.2 1215.52 3618.47 1241.76 3609.01 1264.49C3599.9 1287.23 3587.46 1306.28 3571.7 1321.66C3555.93 1336.7 3537.54 1348.07 3516.52 1355.76C3495.84 1363.45 3473.77 1367.29 3450.3 1367.29C3426.47 1367.29 3403.88 1363.45 3382.5 1355.76C3361.48 1348.07 3342.91 1336.7 3326.8 1321.66C3311.03 1306.28 3298.42 1287.23 3288.96 1264.49C3279.85 1241.76 3275.29 1215.52 3275.29 1185.77ZM3328.9 1185.77C3328.9 1206.83 3331.7 1226.05 3337.31 1243.43C3342.91 1260.48 3350.8 1275.02 3360.96 1287.06C3371.47 1299.09 3384.08 1308.45 3398.8 1315.14C3413.86 1321.49 3430.68 1324.67 3449.25 1324.67C3467.82 1324.67 3484.46 1321.49 3499.17 1315.14C3513.89 1308.45 3526.33 1299.09 3536.49 1287.06C3547 1275.02 3555.05 1260.48 3560.66 1243.43C3566.27 1226.05 3569.07 1206.83 3569.07 1185.77C3569.07 1164.7 3566.27 1145.65 3560.66 1128.6C3555.05 1111.22 3547 1096.51 3536.49 1084.47C3526.33 1072.44 3513.89 1063.25 3499.17 1056.89C3484.46 1050.21 3467.82 1046.86 3449.25 1046.86C3430.68 1046.86 3413.86 1050.21 3398.8 1056.89C3384.08 1063.25 3371.47 1072.44 3360.96 1084.47C3350.8 1096.51 3342.91 1111.22 3337.31 1128.6C3331.7 1145.65 3328.9 1164.7 3328.9 1185.77Z" fill="#489B21"/>
<path d="M3866.36 1124.09C3851.65 1168.88 3836.76 1210.34 3821.69 1248.45C3806.63 1286.56 3791.56 1323.66 3776.5 1359.77H3725.52C3706.95 1308.62 3690.48 1254.63 3676.12 1197.8C3662.1 1140.97 3648.97 1079.12 3636.7 1012.26H3690.31C3695.21 1038.34 3700.29 1064.42 3705.55 1090.49C3710.8 1116.57 3716.23 1141.97 3721.84 1166.71C3727.45 1191.11 3733.05 1214.52 3738.66 1236.91C3744.26 1259.31 3750.04 1280.04 3756 1299.09C3770.01 1263.99 3784.9 1225.55 3800.67 1183.76C3816.44 1141.64 3831.15 1098.18 3844.82 1053.38H3888.96C3902.62 1098.18 3917.51 1141.64 3933.63 1183.76C3949.75 1225.55 3964.81 1263.99 3978.83 1299.09C3984.43 1280.37 3990.04 1259.81 3995.64 1237.42C4001.25 1215.02 4006.68 1191.62 4011.94 1167.21C4017.54 1142.47 4022.97 1117.07 4028.23 1090.99C4033.48 1064.58 4038.56 1038.34 4043.47 1012.26H4095.5C4082.88 1079.12 4069.39 1140.97 4055.03 1197.8C4041.02 1254.63 4024.9 1308.62 4006.68 1359.77H3955.7C3940.29 1323.66 3925.22 1286.56 3910.51 1248.45C3895.79 1210.34 3881.08 1168.88 3866.36 1124.09Z" fill="#489B21"/>
<path d="M4386.2 1367.29C4360.62 1367.29 4337.32 1363.28 4316.3 1355.26C4295.28 1347.23 4277.24 1335.53 4262.17 1320.15C4247.11 1304.78 4235.37 1285.89 4226.96 1263.49C4218.9 1240.76 4214.87 1214.85 4214.87 1185.77C4214.87 1156.68 4219.43 1130.94 4228.54 1108.54C4238 1085.81 4250.61 1066.76 4266.38 1051.38C4282.14 1036 4300.54 1024.3 4321.56 1016.28C4342.58 1008.25 4365 1004.24 4388.83 1004.24C4403.89 1004.24 4417.38 1005.24 4429.29 1007.25C4441.56 1009.26 4452.07 1011.6 4460.83 1014.27C4469.93 1016.94 4477.29 1019.62 4482.9 1022.29C4488.5 1024.97 4492.36 1026.97 4494.46 1028.31L4479.74 1068.43C4476.59 1066.42 4472.04 1064.25 4466.08 1061.91C4460.12 1059.57 4453.29 1057.23 4445.58 1054.89C4438.23 1052.55 4429.99 1050.71 4420.88 1049.37C4412.13 1047.7 4403.19 1046.86 4394.08 1046.86C4374.81 1046.86 4357.47 1050.04 4342.05 1056.39C4326.64 1062.74 4313.5 1071.94 4302.64 1083.97C4291.78 1096.01 4283.37 1110.72 4277.41 1128.1C4271.81 1145.15 4269 1164.37 4269 1185.77C4269 1206.49 4271.46 1225.38 4276.36 1242.43C4281.62 1259.48 4289.32 1274.19 4299.49 1286.56C4309.65 1298.59 4322.26 1307.95 4337.32 1314.64C4352.74 1321.32 4370.61 1324.67 4390.93 1324.67C4414.4 1324.67 4433.85 1322.33 4449.26 1317.65C4464.68 1312.97 4476.24 1308.79 4483.95 1305.11L4497.09 1345.23C4494.63 1346.9 4490.26 1349.07 4483.95 1351.75C4477.64 1354.09 4469.76 1356.43 4460.3 1358.77C4450.84 1361.11 4439.8 1363.11 4427.19 1364.78C4414.58 1366.45 4400.91 1367.29 4386.2 1367.29Z" fill="#489B21"/>
<path d="M4750.98 1317.65V1359.77H4531.83V1012.26H4582.81V1317.65H4750.98Z" fill="#489B21"/>
<path d="M4780.7 1359.77V1012.26H5003V1053.88H4831.68V1157.18H4984.09V1197.8H4831.68V1318.15H5016.14V1359.77H4780.7Z" fill="#489B21"/>
<path d="M5309.34 1359.77C5303.38 1344.73 5297.77 1330.02 5292.52 1315.64C5287.26 1300.93 5281.83 1286.06 5276.23 1271.01H5111.21L5078.1 1359.77H5025.02C5039.04 1323 5052.17 1289.06 5064.44 1257.97C5076.7 1226.55 5088.61 1196.8 5100.17 1168.72C5112.08 1140.64 5123.82 1113.89 5135.38 1088.48C5146.95 1062.74 5159.03 1037.34 5171.65 1012.26H5218.42C5231.03 1037.34 5243.12 1062.74 5254.68 1088.48C5266.24 1113.89 5277.8 1140.64 5289.37 1168.72C5301.28 1196.8 5313.36 1226.55 5325.63 1257.97C5337.89 1289.06 5351.03 1323 5365.04 1359.77H5309.34ZM5261.51 1230.9C5250.3 1201.81 5239.09 1173.73 5227.88 1146.65C5217.02 1119.24 5205.63 1093 5193.72 1067.93C5181.46 1093 5169.72 1119.24 5158.51 1146.65C5147.65 1173.73 5136.78 1201.81 5125.92 1230.9H5261.51Z" fill="#489B21"/>
<path d="M5640.47 1359.77C5632.76 1347.4 5623.83 1333.53 5613.67 1318.15C5603.86 1302.77 5593.17 1286.89 5581.61 1270.51C5570.05 1253.8 5557.96 1236.91 5545.35 1219.86C5533.08 1202.81 5520.82 1186.43 5508.56 1170.72C5496.3 1154.68 5484.38 1139.63 5472.82 1125.59C5461.26 1111.55 5450.57 1099.18 5440.76 1088.48V1359.77H5390.84V1012.26H5431.31C5447.77 1028.98 5465.29 1048.54 5483.86 1070.93C5502.78 1093 5521.35 1115.9 5539.57 1139.63C5558.13 1163.03 5575.48 1186.1 5591.59 1208.83C5608.06 1231.56 5621.9 1251.79 5633.11 1269.51V1012.26H5683.04V1359.77H5640.47Z" fill="#489B21"/>
<path d="M5749.54 1012.26H5800.51V1359.77H5749.54V1012.26Z" fill="#489B21"/>
<path d="M6116.65 1359.77C6108.94 1347.4 6100.01 1333.53 6089.85 1318.15C6080.04 1302.77 6069.35 1286.89 6057.79 1270.51C6046.23 1253.8 6034.14 1236.91 6021.53 1219.86C6009.27 1202.81 5997.01 1186.43 5984.74 1170.72C5972.48 1154.68 5960.57 1139.63 5949.01 1125.59C5937.44 1111.55 5926.76 1099.18 5916.95 1088.48V1359.77H5867.02V1012.26H5907.49C5923.96 1028.98 5941.47 1048.54 5960.04 1070.93C5978.96 1093 5997.53 1115.9 6015.75 1139.63C6034.32 1163.03 6051.66 1186.1 6067.78 1208.83C6084.24 1231.56 6098.08 1251.79 6109.3 1269.51V1012.26H6159.22V1359.77H6116.65Z" fill="#489B21"/>
<path d="M6448.02 1188.77H6499V1351.24C6494.8 1352.58 6488.66 1354.09 6480.61 1355.76C6472.9 1357.43 6463.79 1359.1 6453.28 1360.77C6443.12 1362.44 6431.91 1363.78 6419.64 1364.78C6407.38 1366.12 6394.94 1366.79 6382.33 1366.79C6356.75 1366.79 6333.46 1362.78 6312.44 1354.75C6291.41 1346.73 6273.37 1335.03 6258.31 1319.65C6243.24 1304.28 6231.5 1285.39 6223.09 1262.99C6215.04 1240.59 6211.01 1214.85 6211.01 1185.77C6211.01 1156.68 6215.56 1130.94 6224.67 1108.54C6234.13 1085.81 6246.74 1066.76 6262.51 1051.38C6278.28 1036 6296.67 1024.3 6317.69 1016.28C6339.06 1008.25 6361.84 1004.24 6386.01 1004.24C6402.48 1004.24 6417.02 1005.24 6429.63 1007.25C6442.59 1009.26 6453.63 1011.6 6462.74 1014.27C6471.85 1016.94 6479.21 1019.62 6484.81 1022.29C6490.77 1024.97 6494.8 1026.97 6496.9 1028.31L6480.61 1068.93C6470.45 1062.58 6456.96 1057.39 6440.14 1053.38C6423.32 1049.04 6406.16 1046.86 6388.64 1046.86C6370.07 1046.86 6353.08 1050.04 6337.66 1056.39C6322.6 1062.74 6309.63 1071.94 6298.77 1083.97C6288.26 1096.01 6280.03 1110.72 6274.07 1128.1C6268.12 1145.15 6265.14 1164.37 6265.14 1185.77C6265.14 1206.49 6267.59 1225.38 6272.49 1242.43C6277.75 1259.48 6285.46 1274.19 6295.62 1286.56C6306.13 1298.59 6318.92 1307.95 6333.98 1314.64C6349.4 1321.32 6367.44 1324.67 6388.11 1324.67C6402.83 1324.67 6415.26 1324 6425.42 1322.66C6435.94 1320.99 6443.47 1319.49 6448.02 1318.15V1188.77Z" fill="#489B21"/>
</svg>
